<svg xmlns="http://www.w3.org/2000/svg" data-name="Layer 1" viewBox="0 0 1124.32 253.93"><path d="M290.15 136.89v18.71s13.26 11.37 18.47 14.68l19.9-16.58 3.32 3.79-36.95 32.68H293l-33.63-26.29v-2.13s4.5-1.18 4.5-2.61v-54.47c0-1.66-5-3.55-5-3.55V99l47.37-34.11h2.84l28.18 40.74v1.89ZM292.29 86l-2.13 1.66v43.82l23-14.92ZM589.13 190.19h-1.42l-23.45-18.95v-2.13s3.08-1.18 3.08-3.55V99.72s-9-8.76-14.92-12.08l-10.66 9V163s5.92 5.45 8.76 5.45a6.3 6.3 0 0 0 4-1.18l1.42 2.61-18.68 20.32h-1.42l-25.11-19.42v-2.13s4.74-1.89 4.74-3.55V93.81s-5.21-5.21-8.53-5.21c-1.89 0-3.55 1.42-5.68 3.32l-2.37-3.08 20.84-22.74h1.42s18.71 12.79 23 22l23.68-22h1.42l23.65 20.61 8.76-8.71 3.08 3.32-11.13 10.84v70.34s4.74 5.68 9 5.68c2.13 0 4.74-2.61 6.87-4.5l2.61 2.84ZM770.86 168.34l-23.36 21.85h-1.42l-23.45-20.84-8 7.34-3.32-3.55 10.66-9.47V94.51s-6.64-5.68-8.54-5.68-2.61 1.18-4.74 3.08l-2.13-3.08 22-22.74H730l21.32 18v2.37s-3.08 1.42-3.08 3.79V157s8.53 9.24 14 12.32l10.89-9.24V94s-8.05-5.92-9.71-5.92c-1.42 0-2.84 1.18-3.79 1.89l-1.9-2.84 20.07-21.04h1.42l20.61 17.29 6.63-5.92 3.32 3.54-10.42 10v69.87s7.82 7.34 10.66 7.34c1.9 0 5.45-3.79 7.58-5.68l2.61 2.84-24.16 24.87h-1.42ZM853.83 190.19h-1.42l-24.63-18.95v-2.13s4.26-1.18 4.26-3.55V97.82s-6.4-6.63-11.84-10.18l-3.79 3.55-2.84-3.08 21.79-22.26h1.42l20.84 18.71 8.76-8.76 3.08 3.32L858.33 90v72.47s5 5.45 9.47 5.45c1.9 0 5-3.08 7.11-5l2.37 3.08ZM845.78 52.1h-2.13s-9.47-10.66-17.76-17.05v-2.13a83.2 83.2 0 0 0 17.05-17.76h2.13s8.76 10.42 17.76 17.53v2.13a107.2 107.2 0 0 0-17.05 17.28M940.52 97.58c-6.63 0-12.55-2.37-18.47-8.29h-3.55v73s9 6.63 11.6 6.63c1.9 0 10.66-7.58 12.79-9.47l3.08 3.08-30.79 27.71h-1.42l-25.34-19.42v-2.13s3.79-1.89 3.79-3.55V94.75s-6.16-5.45-9-6.39c-1.9 0-3.08 1.42-5.21 3.32l-2.84-2.84 21.32-22.74h1.66l20.37 18 15.63-18h2.13s7.1 8.76 15.87 8.76c5.21 0 10.42-1.18 14.21-7.11l2.84 1.42c-4.52 9.7-17.54 28.41-28.67 28.41"/><path d="M986.94 136.89v18.71s13.26 11.37 18.47 14.68l19.89-16.58 3.32 3.79-36.95 32.68h-1.89l-33.63-26.27v-2.13s4.5-1.18 4.5-2.61v-54.47c0-1.66-5-3.55-5-3.55V99l47.37-34.11h2.84l28.19 40.74v1.89ZM989.07 86l-2.13 1.66v43.82l23-14.92Z"/><path d="M1095.65 97.58c-6.63 0-12.55-2.37-18.47-8.29h-3.55v73s9 6.63 11.6 6.63c1.9 0 10.66-7.58 12.79-9.47l3.08 3.08-30.79 27.71h-1.42l-25.34-19.42v-2.13s3.79-1.89 3.79-3.55V94.75s-6.16-5.45-9-6.39c-1.9 0-3.08 1.42-5.21 3.32l-2.84-2.84 21.32-22.74h1.66l20.37 18 15.63-18h2.13s7.1 8.76 15.87 8.76c5.21 0 10.42-1.18 14.21-7.11l2.84 1.42c-4.52 9.7-17.54 28.41-28.67 28.41M185 26.52v63.71l.24.24 25.82-24.4h1.42l23.68 20.61 8.76-8.76 3.08 2.84-11.13 11.37v70.34s4.74 5.68 9 5.68c2.37 0 5.68-3.55 7.82-5.68l2.84 2.84-25.11 24.87H230l-22.5-18.71v-2.13s3.08-1.18 3.08-3.55V100s-7.82-8-14.21-12.08L185 97.82v63.71c.47 1.18 5 7.11 12.79 7.11l.47 2.61-18.71 18.95h-1.42l-23.92-18.95v-2.13s4.5-1.89 4.5-3.55V37.67c0-2.84-5.21-3.55-5.21-3.55v-2.61c18.71-10.42 37.66-25.58 37.66-25.58h1.66s21.37 19.86 36.47-2.84L233.08 5C206.8 50.67 185 26.52 185 26.52M699.79 227.44l-.26-137.62 10.7-10.44-3.06-3.31-10.69 9.67-28-20.62h-1.53l-52.7 34.37V101a17.8 17.8 0 0 1 4.85 2.36 2.34 2.34 0 0 1 .71.94s0 .05 0 .51v53.74a1.3 1.3 0 0 1-.37 1s-.92 1.22-4.72 2.22v1.53l32.08 27h1.53l22.4-25.46h.51l.26 2.68-.35 55.86 35.23 27.5h1.78s19.3-22.64 36.67 3.06l3-2s-24.83-46.35-48.04-24.5m-28.52-69.75-9.42 9.67c-3.29-1.53-13.75-12-13.75-12V86.49l1-.76c4.43 2.37 22.15 17.06 22.15 17.06v54.9Z"/><path d="M120.33 169.06V44.42C147 38.2 160.78 8.79 160.78 8.79l-4-2.16a27 27 0 0 1-7.5 9.79c-10.35 8-20.07 7.47-36 5a98 98 0 0 1-11.6-2.69c-5.19-1.4-8.12-2.28-8.12-2.28-17.1-5-24.74-5.63-24.74-5.63-8.67-1-13.82-1-16.8-.63a35 35 0 0 0-3.82.63c-12.87 3-22.62 10-30 17a76 76 0 0 0-18.2 27l3.77 2A60 60 0 0 1 7.06 51a44.8 44.8 0 0 1 9.18-10.64 29.7 29.7 0 0 1 8.1-4.87 24.9 24.9 0 0 1 8-1.94c6.88-.63 18 .67 27 2.3 8.15 1.48 14.56 3.27 14.56 3.27C-9.31 70.84 10.7 141.8 10.7 141.8a73.15 73.15 0 0 0 31.5 43.58 70 70 0 0 0 14.8 7.16A68.5 68.5 0 0 0 72.56 196a78.6 78.6 0 0 0 16-.19 70.5 70.5 0 0 0 19.26-4.81 65 65 0 0 0 9.8-5 84.1 84.1 0 0 0 21.5-19.26 131.3 131.3 0 0 0 13.48-20.66l-3.89-2.08c-11.71 20.43-28.38 25.06-28.38 25.06m-54.26-10.65 2.8 3 4-2.93L90 173.05a55.3 55.3 0 0 1-13.66-2.2 42.3 42.3 0 0 1-7.63-3 48.8 48.8 0 0 1-12.3-9.1 61 61 0 0 1-6.08-7.28 55.2 55.2 0 0 1-5.91-10.69 62 62 0 0 1-3-8.85 72 72 0 0 1-1.64-8.25 86 86 0 0 1-.77-12.64s0-4.37.52-9.47a81 81 0 0 1 1.68-10.51 79.3 79.3 0 0 1 4.58-14.3 76.4 76.4 0 0 1 9.63-16.32 71.8 71.8 0 0 1 24.37-19.7s9.52 2.31 18.06 4L66 68.6l2.79 3 5.63-4.22a2.4 2.4 0 0 1 .33.47 7.8 7.8 0 0 1 .74 1.85s.08.31.19.77a33 33 0 0 1 .59 3.69c.1 1.07.25 2.53.33 4 .06 1.23.06.82.15 3.73 0 .46.07 1.71.07 3.38 0 3 0 7.23-.08 10.85v22l-.08 29.51v2.83l-10.65 8m36.8-112.76a44.8 44.8 0 0 0 13.53-.48v125.14a58.6 58.6 0 0 1-11.61 2.24c-2.23.28-7.26.48-7.26.48-2.57.18-7.44 0-7.44 0l18.24-16.55a18.1 18.1 0 0 1-6.72-8 11 11 0 0 1-.4-1.25 10.4 10.4 0 0 1-.26-1.67V47.23M517.57 180.94l-3.57-2.16a26.5 26.5 0 0 1-6.64 9.79c-9.16 8-17.76 7.47-31.84 5-.69-.12-1.33-.25-2-.39.58-.9 1.15-1.9 1.72-3a35.9 35.9 0 0 0 3.76-12.29c.45-4.77.54-8.8.54-8.8l.88-32.3.24-39.63V38l1.08-.24c23.61-6.22 35.8-35.63 35.8-35.63L514 0a26.5 26.5 0 0 1-6.64 9.79c-9.16 8-17.76 7.47-31.84 5a78 78 0 0 1-10.26-2.69c-4.59-1.4-7.19-2.28-7.19-2.28-15.13-5-21.89-5.63-21.89-5.63-7.67-1-12.23-1-14.86-.63a28 28 0 0 0-3.38.63c-11.39 3-20 10-26.51 17a77.9 77.9 0 0 0-16.15 27l3.34 2a62 62 0 0 1 2.91-5.89 43.3 43.3 0 0 1 8.13-10.64 25.5 25.5 0 0 1 7.17-4.87 20 20 0 0 1 7.1-1.94c6.09-.63 15.9.67 23.85 2.3 4.26.87 8 1.85 10.3 2.51l-37.23 27.72 3.15 3.29 4.79-3.49s3.06 1.31 2.81 27.13l-.1 72.87-1.17.8-9.47 6.9 3.13 3.3 4-2.92 17.51 14.86a28 28 0 0 0-4.1.22 28 28 0 0 0-3.4.66c-11.39 3-20 10-26.51 17a77.9 77.9 0 0 0-16.15 27l3.34 2a62 62 0 0 1 2.91-5.89 43.3 43.3 0 0 1 8.13-10.64 25.5 25.5 0 0 1 7.17-4.87 20 20 0 0 1 7.1-1.94c6.09-.63 15.9.67 23.85 2.3 7.21 1.48 12.88 3.27 12.88 3.27 19.31 5.72 30.36 10.41 47 3.24 19.28-8.35 29.85-33.53 29.85-33.53m-92.07 1.14L446.45 165l-4.78-4.31a14.7 14.7 0 0 1-4.21-9.94V37.58l5.69-4.37 2.76.87s2.52.69 6 1.6V170c.13 9.19-.67 14.19-1.14 16.33-10-2.91-14.59-3.36-14.59-3.36a91 91 0 0 0-10.47-.85Z"/></svg>